<svg width="30" height="30" viewBox="0 0 30 30" fill="none" xmlns="http://www.w3.org/2000/svg">
<path d="M15 1.875H13.125V3.75H15V1.875Z" fill="#E4D8D4"/>
<path d="M16.875 1.875H15V3.75H16.875V1.875Z" fill="#E4D8D4"/>
<path d="M18.75 1.875H16.875V3.75H18.75V1.875Z" fill="#E4D8D4"/>
<path d="M20.625 1.875H18.75V3.75H20.625V1.875Z" fill="#E4D8D4"/>
<path d="M22.5 1.875H20.625V3.75H22.5V1.875Z" fill="#E4D8D4"/>
<path d="M24.375 1.875H22.5V3.75H24.375V1.875Z" fill="#E4D8D4"/>
<path d="M13.125 3.75H11.25V5.625H13.125V3.75Z" fill="#E4D8D4"/>
<path d="M15 3.75H13.125V5.625H15V3.75Z" fill="#E4D8D4"/>
<path d="M24.375 3.75H22.5V5.625H24.375V3.75Z" fill="#E4D8D4"/>
<path d="M13.125 5.625H11.25V7.5H13.125V5.625Z" fill="#E4D8D4"/>
<path d="M24.375 5.625H22.5V7.5H24.375V5.625Z" fill="#E4D8D4"/>
<path d="M11.25 7.5H9.375V9.375H11.25V7.5Z" fill="#E4D8D4"/>
<path d="M16.875 7.5H15V9.375H16.875V7.5Z" fill="#E4D8D4"/>
<path d="M18.75 7.5H16.875V9.375H18.75V7.5Z" fill="#E4D8D4"/>
<path d="M20.625 7.5H18.75V9.375H20.625V7.5Z" fill="#E4D8D4"/>
<path d="M22.5 7.5H20.625V9.375H22.5V7.5Z" fill="#E4D8D4"/>
<path d="M24.375 7.5H22.5V9.375H24.375V7.5Z" fill="#E4D8D4"/>
<path d="M11.25 9.375H9.375V11.25H11.25V9.375Z" fill="#E4D8D4"/>
<path d="M16.875 9.375H15V11.25H16.875V9.375Z" fill="#E4D8D4"/>
<path d="M9.375 11.25H7.5V13.125H9.375V11.25Z" fill="#E4D8D4"/>
<path d="M11.25 11.25H9.375V13.125H11.25V11.25Z" fill="#E4D8D4"/>
<path d="M16.875 11.25H15V13.125H16.875V11.25Z" fill="#E4D8D4"/>
<path d="M18.75 11.25H16.875V13.125H18.75V11.25Z" fill="#E4D8D4"/>
<path d="M20.625 11.25H18.75V13.125H20.625V11.25Z" fill="#E4D8D4"/>
<path d="M22.5 11.25H20.625V13.125H22.5V11.25Z" fill="#E4D8D4"/>
<path d="M7.5 13.125H5.625V15H7.5V13.125Z" fill="#E4D8D4"/>
<path d="M22.5 13.125H20.625V15H22.5V13.125Z" fill="#E4D8D4"/>
<path d="M7.5 15H5.625V16.875H7.5V15Z" fill="#E4D8D4"/>
<path d="M22.5 15H20.625V16.875H22.5V15Z" fill="#E4D8D4"/>
<path d="M7.5 16.875H5.625V18.75H7.5V16.875Z" fill="#E4D8D4"/>
<path d="M9.375 16.875H7.5V18.75H9.375V16.875Z" fill="#E4D8D4"/>
<path d="M11.25 16.875H9.375V18.75H11.25V16.875Z" fill="#E4D8D4"/>
<path d="M16.875 16.875H15V18.75H16.875V16.875Z" fill="#E4D8D4"/>
<path d="M18.75 16.875H16.875V18.75H18.75V16.875Z" fill="#E4D8D4"/>
<path d="M20.625 16.875H18.75V18.75H20.625V16.875Z" fill="#E4D8D4"/>
<path d="M22.5 16.875H20.625V18.75H22.5V16.875Z" fill="#E4D8D4"/>
<path d="M11.25 18.75H9.375V20.625H11.25V18.75Z" fill="#E4D8D4"/>
<path d="M16.875 18.75H15V20.625H16.875V18.75Z" fill="#E4D8D4"/>
<path d="M11.25 20.625H9.375V22.5H11.25V20.625Z" fill="#E4D8D4"/>
<path d="M16.875 20.625H15V22.5H16.875V20.625Z" fill="#E4D8D4"/>
<path d="M11.25 22.5H9.375V24.375H11.25V22.5Z" fill="#E4D8D4"/>
<path d="M16.875 22.5H15V24.375H16.875V22.5Z" fill="#E4D8D4"/>
<path d="M11.25 24.375H9.375V26.25H11.25V24.375Z" fill="#E4D8D4"/>
<path d="M16.875 24.375H15V26.25H16.875V24.375Z" fill="#E4D8D4"/>
<path d="M11.25 26.25H9.375V28.125H11.25V26.25Z" fill="#E4D8D4"/>
<path d="M13.125 26.25H11.25V28.125H13.125V26.25Z" fill="#E4D8D4"/>
<path d="M15 26.25H13.125V28.125H15V26.25Z" fill="#E4D8D4"/>
<path d="M16.875 26.25H15V28.125H16.875V26.25Z" fill="#E4D8D4"/>
</svg>
