<svg width="30" height="30" viewBox="0 0 30 30" fill="none" xmlns="http://www.w3.org/2000/svg">
<path d="M9.375 1.875H7.5V3.75H9.375V1.875Z" fill="#E4D8D4"/>
<path d="M11.25 1.875H9.375V3.75H11.25V1.875Z" fill="#E4D8D4"/>
<path d="M13.125 1.875H11.25V3.75H13.125V1.875Z" fill="#E4D8D4"/>
<path d="M15 1.875H13.125V3.75H15V1.875Z" fill="#E4D8D4"/>
<path d="M16.875 1.875H15V3.75H16.875V1.875Z" fill="#E4D8D4"/>
<path d="M18.75 1.875H16.875V3.75H18.75V1.875Z" fill="#E4D8D4"/>
<path d="M20.625 1.875H18.75V3.75H20.625V1.875Z" fill="#E4D8D4"/>
<path d="M22.5 1.875H20.625V3.75H22.5V1.875Z" fill="#E4D8D4"/>
<path d="M5.625 3.75H3.75V5.625H5.625V3.75Z" fill="#E4D8D4"/>
<path d="M7.5 3.75H5.625V5.625H7.5V3.75Z" fill="#E4D8D4"/>
<path d="M24.375 3.75H22.5V5.625H24.375V3.75Z" fill="#E4D8D4"/>
<path d="M26.25 3.75H24.375V5.625H26.25V3.75Z" fill="#E4D8D4"/>
<path d="M5.625 5.625H3.75V7.5H5.625V5.625Z" fill="#E4D8D4"/>
<path d="M26.25 5.625H24.375V7.5H26.25V5.625Z" fill="#E4D8D4"/>
<path d="M3.75 7.5H1.875V9.375H3.75V7.5Z" fill="#E4D8D4"/>
<path d="M22.5 7.5H20.625V9.375H22.5V7.5Z" fill="#E4D8D4"/>
<path d="M28.125 7.5H26.25V9.375H28.125V7.5Z" fill="#E4D8D4"/>
<path d="M3.75 9.375H1.875V11.25H3.75V9.375Z" fill="#E4D8D4"/>
<path d="M13.125 9.375H11.25V11.25H13.125V9.375Z" fill="#E4D8D4"/>
<path d="M15 9.375H13.125V11.25H15V9.375Z" fill="#E4D8D4"/>
<path d="M16.875 9.375H15V11.25H16.875V9.375Z" fill="#E4D8D4"/>
<path d="M18.75 9.375H16.875V11.25H18.75V9.375Z" fill="#E4D8D4"/>
<path d="M28.125 9.375H26.25V11.25H28.125V9.375Z" fill="#E4D8D4"/>
<path d="M3.75 11.25H1.875V13.125H3.75V11.25Z" fill="#E4D8D4"/>
<path d="M11.25 11.25H9.375V13.125H11.25V11.25Z" fill="#E4D8D4"/>
<path d="M20.625 11.25H18.75V13.125H20.625V11.25Z" fill="#E4D8D4"/>
<path d="M28.125 11.25H26.25V13.125H28.125V11.25Z" fill="#E4D8D4"/>
<path d="M3.75 13.125H1.875V15H3.75V13.125Z" fill="#E4D8D4"/>
<path d="M11.25 13.125H9.375V15H11.25V13.125Z" fill="#E4D8D4"/>
<path d="M20.625 13.125H18.75V15H20.625V13.125Z" fill="#E4D8D4"/>
<path d="M28.125 13.125H26.25V15H28.125V13.125Z" fill="#E4D8D4"/>
<path d="M3.75 15H1.875V16.875H3.75V15Z" fill="#E4D8D4"/>
<path d="M11.25 15H9.375V16.875H11.25V15Z" fill="#E4D8D4"/>
<path d="M20.625 15H18.75V16.875H20.625V15Z" fill="#E4D8D4"/>
<path d="M28.125 15H26.25V16.875H28.125V15Z" fill="#E4D8D4"/>
<path d="M3.75 16.875H1.875V18.75H3.75V16.875Z" fill="#E4D8D4"/>
<path d="M11.25 16.875H9.375V18.75H11.25V16.875Z" fill="#E4D8D4"/>
<path d="M20.625 16.875H18.75V18.75H20.625V16.875Z" fill="#E4D8D4"/>
<path d="M28.125 16.875H26.25V18.75H28.125V16.875Z" fill="#E4D8D4"/>
<path d="M3.75 18.75H1.875V20.625H3.75V18.75Z" fill="#E4D8D4"/>
<path d="M13.125 18.75H11.25V20.625H13.125V18.75Z" fill="#E4D8D4"/>
<path d="M15 18.75H13.125V20.625H15V18.75Z" fill="#E4D8D4"/>
<path d="M16.875 18.75H15V20.625H16.875V18.75Z" fill="#E4D8D4"/>
<path d="M18.75 18.75H16.875V20.625H18.75V18.75Z" fill="#E4D8D4"/>
<path d="M28.125 18.75H26.25V20.625H28.125V18.75Z" fill="#E4D8D4"/>
<path d="M3.75 20.625H1.875V22.5H3.75V20.625Z" fill="#E4D8D4"/>
<path d="M28.125 20.625H26.25V22.5H28.125V20.625Z" fill="#E4D8D4"/>
<path d="M5.625 22.5H3.75V24.375H5.625V22.5Z" fill="#E4D8D4"/>
<path d="M26.25 22.5H24.375V24.375H26.25V22.5Z" fill="#E4D8D4"/>
<path d="M5.625 24.375H3.75V26.25H5.625V24.375Z" fill="#E4D8D4"/>
<path d="M7.5 24.375H5.625V26.25H7.5V24.375Z" fill="#E4D8D4"/>
<path d="M24.375 24.375H22.5V26.25H24.375V24.375Z" fill="#E4D8D4"/>
<path d="M26.25 24.375H24.375V26.25H26.25V24.375Z" fill="#E4D8D4"/>
<path d="M9.375 26.25H7.5V28.125H9.375V26.25Z" fill="#E4D8D4"/>
<path d="M11.25 26.25H9.375V28.125H11.25V26.25Z" fill="#E4D8D4"/>
<path d="M13.125 26.25H11.25V28.125H13.125V26.25Z" fill="#E4D8D4"/>
<path d="M15 26.25H13.125V28.125H15V26.25Z" fill="#E4D8D4"/>
<path d="M16.875 26.25H15V28.125H16.875V26.25Z" fill="#E4D8D4"/>
<path d="M18.75 26.25H16.875V28.125H18.75V26.25Z" fill="#E4D8D4"/>
<path d="M20.625 26.25H18.75V28.125H20.625V26.25Z" fill="#E4D8D4"/>
<path d="M22.5 26.25H20.625V28.125H22.5V26.25Z" fill="#E4D8D4"/>
</svg>
