<svg width="30" height="30" viewBox="0 0 30 30" fill="none" xmlns="http://www.w3.org/2000/svg">
<path d="M5.625 3.75H3.75V5.625H5.625V3.75Z" fill="#E4D8D4"/>
<path d="M7.5 3.75H5.625V5.625H7.5V3.75Z" fill="#E4D8D4"/>
<path d="M9.375 3.75H7.5V5.625H9.375V3.75Z" fill="#E4D8D4"/>
<path d="M11.25 3.75H9.375V5.625H11.25V3.75Z" fill="#E4D8D4"/>
<path d="M26.25 3.75H24.375V5.625H26.25V3.75Z" fill="#E4D8D4"/>
<path d="M7.5 5.625H5.625V7.5H7.5V5.625Z" fill="#E4D8D4"/>
<path d="M13.125 5.625H11.25V7.5H13.125V5.625Z" fill="#E4D8D4"/>
<path d="M24.375 5.625H22.5V7.5H24.375V5.625Z" fill="#E4D8D4"/>
<path d="M7.5 7.5H5.625V9.375H7.5V7.5Z" fill="#E4D8D4"/>
<path d="M15 7.5H13.125V9.375H15V7.5Z" fill="#E4D8D4"/>
<path d="M22.5 7.5H20.625V9.375H22.5V7.5Z" fill="#E4D8D4"/>
<path d="M9.375 9.375H7.5V11.25H9.375V9.375Z" fill="#E4D8D4"/>
<path d="M15 9.375H13.125V11.25H15V9.375Z" fill="#E4D8D4"/>
<path d="M20.625 9.375H18.75V11.25H20.625V9.375Z" fill="#E4D8D4"/>
<path d="M11.25 11.25H9.375V13.125H11.25V11.25Z" fill="#E4D8D4"/>
<path d="M16.875 11.25H15V13.125H16.875V11.25Z" fill="#E4D8D4"/>
<path d="M18.75 11.25H16.875V13.125H18.75V11.25Z" fill="#E4D8D4"/>
<path d="M11.25 13.125H9.375V15H11.25V13.125Z" fill="#E4D8D4"/>
<path d="M13.125 13.125H11.25V15H13.125V13.125Z" fill="#E4D8D4"/>
<path d="M18.75 13.125H16.875V15H18.75V13.125Z" fill="#E4D8D4"/>
<path d="M13.125 15H11.25V16.875H13.125V15Z" fill="#E4D8D4"/>
<path d="M18.75 15H16.875V16.875H18.75V15Z" fill="#E4D8D4"/>
<path d="M20.625 15H18.75V16.875H20.625V15Z" fill="#E4D8D4"/>
<path d="M13.125 16.875H11.25V18.75H13.125V16.875Z" fill="#E4D8D4"/>
<path d="M15 16.875H13.125V18.75H15V16.875Z" fill="#E4D8D4"/>
<path d="M20.625 16.875H18.75V18.75H20.625V16.875Z" fill="#E4D8D4"/>
<path d="M11.25 18.75H9.375V20.625H11.25V18.75Z" fill="#E4D8D4"/>
<path d="M16.875 18.75H15V20.625H16.875V18.75Z" fill="#E4D8D4"/>
<path d="M22.5 18.75H20.625V20.625H22.5V18.75Z" fill="#E4D8D4"/>
<path d="M9.375 20.625H7.5V22.5H9.375V20.625Z" fill="#E4D8D4"/>
<path d="M16.875 20.625H15V22.5H16.875V20.625Z" fill="#E4D8D4"/>
<path d="M24.375 20.625H22.5V22.5H24.375V20.625Z" fill="#E4D8D4"/>
<path d="M7.5 22.5H5.625V24.375H7.5V22.5Z" fill="#E4D8D4"/>
<path d="M18.75 22.5H16.875V24.375H18.75V22.5Z" fill="#E4D8D4"/>
<path d="M24.375 22.5H22.5V24.375H24.375V22.5Z" fill="#E4D8D4"/>
<path d="M5.625 24.375H3.75V26.25H5.625V24.375Z" fill="#E4D8D4"/>
<path d="M20.625 24.375H18.75V26.25H20.625V24.375Z" fill="#E4D8D4"/>
<path d="M22.5 24.375H20.625V26.25H22.5V24.375Z" fill="#E4D8D4"/>
<path d="M24.375 24.375H22.5V26.25H24.375V24.375Z" fill="#E4D8D4"/>
<path d="M26.25 24.375H24.375V26.25H26.25V24.375Z" fill="#E4D8D4"/>
</svg>
